<mxfile host="app.diagrams.net" modified="2024-07-02T02:56:15.981Z" agent="Mozilla/5.0 (Macintosh; Intel Mac OS X 10_15_7) AppleWebKit/605.1.15 (KHTML, like Gecko) Version/17.4.1 Safari/605.1.15" version="24.6.4" etag="Au1z7C-onS4EdEF9VPqq" type="github">
  <diagram name="Page-1" id="WHK-kg4jEMvDLv7SOi1r">
    <mxGraphModel>
      <root>
        <mxCell id="0" />
        <mxCell id="1" parent="0" />
      </root>
    </mxGraphModel>
  </diagram>
</mxfile>
